<?xml version="1.0" encoding="UTF-8"?>
<svg width="62px" height="36px" viewBox="0 0 62 36" version="1.1" xmlns="http://www.w3.org/2000/svg" xmlns:xlink="http://www.w3.org/1999/xlink">
    <!-- Generator: Sketch 52.2 (67145) - http://www.bohemiancoding.com/sketch -->
    <title>Group</title>
    <desc>Created with Sketch.</desc>
    <g id="Page-1" stroke="none" stroke-width="1" fill="none" fill-rule="evenodd">
        <g id="noun_Arrow_1569917" transform="translate(-19.000000, -1.000000)" fill="#000000">
            <g id="Group" transform="translate(19.000000, 0.637820)">
                <path d="M61.750711,17.6725 L45.750561,0.67245 C45.363261,0.26825 44.701351,0.26535 44.328451,0.62545 C43.949451,0.99135 43.921651,1.66305 44.281451,2.04755 L58.687811,17.3601 L1.000161,17.3601 C0.447861,17.3601 0.000161,17.8078 0.000161,18.3601 C0.000161,18.9124 0.447861,19.3601 1.000161,19.3601 L58.687811,19.3601 L44.281451,34.6726 C43.921351,35.0571 43.943551,35.7347 44.328451,36.0947 C44.713051,36.4547 45.331961,36.4636 45.750561,36.0477 L61.750711,19.0477 C62.131011,18.5797 62.031011,18.0061 61.750711,17.6725 Z" id="Path"></path>
            </g>
        </g>
    </g>
</svg>